<svg id="Layer_1" data-name="Layer 1" xmlns="http://www.w3.org/2000/svg" viewBox="0 0 405.51 120.56"><defs><style>.cls-1{fill:#fff;}</style></defs><path class="cls-1" d="M2100,316.33a54.38,54.38,0,1,0-55.5,54.35v0H2100v-53h0C2100,317.22,2100,316.78,2100,316.33ZM2073.38,338a14.57,14.57,0,0,1-3,4.74,13.7,13.7,0,0,1-4.16,3.09,10.44,10.44,0,0,1-4.33,1.05,11.51,11.51,0,0,1-5.23-1.13,11.88,11.88,0,0,1-3.73-3.1,15.74,15.74,0,0,1-2.79-6.15c-.13-.48-.25-.88-.36-1.17v0L2046.67,325l-.05.14,0-.14-3.16,10.3,0,0c-.1.28-.2.62-.31,1a17,17,0,0,1-2.83,6.25,10.28,10.28,0,0,1-3.72,3.1,11.51,11.51,0,0,1-5.23,1.13,10.4,10.4,0,0,1-4.33-1.05,13.7,13.7,0,0,1-4.16-3.09,14.41,14.41,0,0,1-3-4.74l-13.09-34.75.7-.15a14.57,14.57,0,0,1,3.14-.33c6,0,10,3.06,13.24,10l6.93,18.42a4.18,4.18,0,0,0,.56,1.06.18.18,0,0,0,.09.06l.19,0a1,1,0,0,0,.67-.17,3.24,3.24,0,0,0,.55-1.27l7-24c0-.05,1.14-4.54,6.74-4.87h.16c5.6.33,6.74,4.82,6.75,4.87l7,24a3.24,3.24,0,0,0,.55,1.27,1,1,0,0,0,.67.17l.19,0a.26.26,0,0,0,.09-.06,4.18,4.18,0,0,0,.56-1.06l6.93-18.42c3.21-6.92,7.29-10,13.23-10a14.59,14.59,0,0,1,3.15.33l.69.15Z" transform="translate(-1991.26 -261.96)"/><path class="cls-1" d="M2335.29,331.44a17.55,17.55,0,0,1,5.64-13,19.14,19.14,0,0,1,6.23-3.83,21.87,21.87,0,0,1,15.29,0,19.09,19.09,0,0,1,6.22,3.83,17.79,17.79,0,0,1,4.18,5.79,17.58,17.58,0,0,1,0,14.39,17.57,17.57,0,0,1-4.18,5.71,19.32,19.32,0,0,1-6.22,3.78,21.87,21.87,0,0,1-15.29,0,19.37,19.37,0,0,1-6.23-3.78,17.2,17.2,0,0,1-5.64-12.89Zm9.15,0a9.36,9.36,0,0,0,.78,3.82,9.5,9.5,0,0,0,2.17,3.08,9.72,9.72,0,0,0,3.27,2,11.9,11.9,0,0,0,4.18.71,11.21,11.21,0,0,0,3.94-.71,10.1,10.1,0,0,0,3.31-2,9.57,9.57,0,0,0,2.25-3.08,8.92,8.92,0,0,0,.83-3.82,9.2,9.2,0,0,0-.83-3.86,9.86,9.86,0,0,0-2.25-3.15,10.57,10.57,0,0,0-3.31-2.13,10.08,10.08,0,0,0-3.94-.79,10.7,10.7,0,0,0-4.18.79,10.17,10.17,0,0,0-3.27,2.13,9.8,9.8,0,0,0-2.17,3.15A9.65,9.65,0,0,0,2344.44,331.44Zm17.1,35.08a22.67,22.67,0,0,0,.28,4,4.76,4.76,0,0,0,1.1,2.44,4.31,4.31,0,0,0,2.29,1.23,19.47,19.47,0,0,0,3.82.31h27.75v8h-29.25a36,36,0,0,1-7.05-.59,9.91,9.91,0,0,1-4.69-2.21,9.33,9.33,0,0,1-2.65-4.53,29,29,0,0,1-.82-7.57V357.37h9.22Zm25.15-54h9.22v47.06h-9.22Z" transform="translate(-1991.26 -261.96)"/><path class="cls-1" d="M2150.31,354.08v8h-20.12c-3.52,0-6.12-.82-7.8-2.48s-2.53-4.3-2.53-7.93V316.14h29.5v8h-20.27V351a2.92,2.92,0,0,0,.83,2.45,3.62,3.62,0,0,0,2.25.63Zm6.47-12.15h-11v-8.12h11V312.67h9V370.8h-9Zm15-29.26h9V370.8h-9Z" transform="translate(-1991.26 -261.96)"/><path class="cls-1" d="M2191.16,336.57a18.94,18.94,0,0,1,1.66-7.93,19.56,19.56,0,0,1,4.49-6.31,21,21,0,0,1,6.67-4.14,22.54,22.54,0,0,1,16.17,0,21,21,0,0,1,6.67,4.14,19.61,19.61,0,0,1,4.49,6.27,18.9,18.9,0,0,1,1.66,8,19.1,19.1,0,0,1-1.66,8,19.5,19.5,0,0,1-4.49,6.32,20.76,20.76,0,0,1-6.67,4.13,22.54,22.54,0,0,1-16.17,0,20.52,20.52,0,0,1-6.67-4.17,20,20,0,0,1-4.49-6.35A19,19,0,0,1,2191.16,336.57Zm9.08.08a12,12,0,0,0,.9,4.73,10.83,10.83,0,0,0,2.52,3.67,11.41,11.41,0,0,0,3.75,2.36,12.77,12.77,0,0,0,4.65.83,13.12,13.12,0,0,0,4.7-.83,10.92,10.92,0,0,0,3.75-2.36,11.17,11.17,0,0,0,2.48-3.67,12.67,12.67,0,0,0,0-9.43,11.14,11.14,0,0,0-2.48-3.71,11.48,11.48,0,0,0-3.75-2.4,12.51,12.51,0,0,0-4.7-.87,12.18,12.18,0,0,0-4.65.87,12,12,0,0,0-3.75,2.4,10.8,10.8,0,0,0-2.52,3.71A12.15,12.15,0,0,0,2200.24,336.65Zm41.8-24h9.23V370.8H2242Z" transform="translate(-1991.26 -261.96)"/><path class="cls-1" d="M2304.11,355.66v8h-27.2c-3.53,0-6.13-.82-7.82-2.48s-2.52-4.3-2.52-7.93V315.35h35v8H2275.8v11.76h25.79v8H2275.8v9.55a3,3,0,0,0,.82,2.44,3.61,3.61,0,0,0,2.26.64Zm1.5-20.59h10.18v-22.4H2325V370.8h-9.23V343h-10.18Z" transform="translate(-1991.26 -261.96)"/></svg>